<?xml version="1.0" standalone="no"?>
<!DOCTYPE svg PUBLIC "-//W3C//DTD SVG 20010904//EN"
 "http://www.w3.org/TR/2001/REC-SVG-20010904/DTD/svg10.dtd">
<svg version="1.0" xmlns="http://www.w3.org/2000/svg"
 width="660.000000pt" height="661.000000pt" viewBox="0 0 660.000000 661.000000"
 preserveAspectRatio="xMidYMid meet">

<g transform="translate(0.000000,661.000000) scale(0.100000,-0.100000)"
fill="#000000" stroke="none">
<path d="M2535 4723 c-169 -23 -316 -68 -470 -143 -280 -138 -504 -365 -646
-655 -99 -203 -142 -391 -142 -620 0 -224 43 -414 137 -611 199 -415 556 -693
1016 -791 78 -16 150 -18 870 -18 873 0 839 -2 1057 70 493 164 856 588 950
1108 22 124 22 361 -1 487 -93 514 -460 942 -947 1104 -219 73 -170 70 -1024
72 -423 1 -783 0 -800 -3z m1590 -520 c288 -83 494 -256 615 -517 65 -137 75
-189 75 -381 0 -200 -10 -247 -85 -400 -107 -220 -279 -379 -504 -466 -150
-58 -183 -60 -968 -57 -708 4 -714 4 -793 27 -354 101 -619 393 -676 745 -17
106 -7 300 21 396 80 284 298 522 571 621 157 57 167 58 954 55 690 -2 723 -3
790 -23z"/>
<path d="M3296 4010 c-84 -226 -116 -294 -183 -387 -82 -116 -224 -208 -442
-286 l-93 -34 93 -32 c214 -74 360 -168 442 -284 67 -93 99 -161 183 -387 3
-9 20 26 40 80 45 127 104 245 160 319 80 107 230 201 433 272 l93 32 -104 39
c-341 128 -460 247 -582 588 -20 54 -37 89 -40 80z"/>
</g>
</svg>
